<?xml version="1.0" encoding="UTF-8"?>
<svg id="_Слой_1" data-name="Слой_1" xmlns="http://www.w3.org/2000/svg" version="1.1" viewBox="0 0 24 30">
  <!-- Generator: Adobe Illustrator 29.8.4, SVG Export Plug-In . SVG Version: 2.1.1 Build 6)  -->
  <defs>
    <style>
      .st0 {
        fill: #be864b;
      }
    </style>
  </defs>
  <path class="st0" d="M2.7,20c-.41,0-.7-.31-.7-.66,0-.25.15-.52.5-.7,1.79-.95,3.86-4.23,3.86-6.25-3.02.09-4.33-2.58-4.33-4.26,0-2.01,1.74-4.13,4.31-4.13,3.24,0,4.83,2.55,4.83,5.31,0,5.98-6.83,10.69-8.47,10.69ZM13.53,20c-.41,0-.7-.31-.7-.66,0-.25.15-.52.5-.7,1.79-.95,3.86-4.23,3.86-6.25-3.02.09-4.33-2.58-4.33-4.26,0-2.01,1.74-4.13,4.31-4.13,3.24,0,4.83,2.55,4.83,5.31,0,5.98-6.83,10.69-8.47,10.69Z"/>
</svg>