<?xml version="1.0" encoding="UTF-8"?> <svg xmlns="http://www.w3.org/2000/svg" xmlns:xlink="http://www.w3.org/1999/xlink" version="1.1" id="Слой_1" x="0px" y="0px" viewBox="0 0 190 40" style="enable-background:new 0 0 190 40;" xml:space="preserve"> <style type="text/css"> .st0{fill:#3B3B3A;} </style> <g> <g> <path class="st0" d="M24.7,15.5V0h3.5v12.6l-1.1-0.8L36.7,0h3.8L27.9,15.5H24.7z M32.1,7.9l2.6-2.3l6.1,9.8h-4.1L32.1,7.9z"></path> <path class="st0" d="M46.7,15.5l2.6-4.5l0,0l6.2-10.8h3.8l-8.8,15.3H46.7z M49.2,13.2L41.5,0h3.8l6.2,10.8L49.2,13.2z"></path> <path class="st0" d="M62.3,0h14.5v15.5h-3.5V1.5L74.8,3H64.2l1.5-1.2c0.2,1.1,0.2,2,0.3,2.9c0,0.9,0,1.8,0,2.6 c0,2-0.2,3.5-0.5,4.7c-0.3,1.2-0.9,2.1-1.7,2.7c-0.8,0.6-1.7,0.9-2.9,0.9c-0.5,0-0.9,0-1.4-0.2c-0.5-0.2-0.9-0.3-1.2-0.5v-2.9 c0.6,0.3,1.2,0.3,1.7,0.3c0.9,0,1.7-0.5,2.1-1.4c0.5-0.9,0.6-2.3,0.6-4.4c0-0.9,0-2-0.2-3C62.6,2.7,62.4,1.4,62.3,0z"></path> <path class="st0" d="M80.8,15.5V0h3.5v14.2l-1.5-1.5h6.2c0.8,0,1.5-0.2,2-0.6s0.8-0.9,0.8-1.7c0-0.8-0.3-1.2-0.8-1.7 c-0.5-0.5-1.1-0.6-2-0.6h-6.5V5.3h6.7c1.2,0,2.3,0.2,3.2,0.6c0.9,0.5,1.5,1.1,2.1,1.8c0.5,0.8,0.8,1.7,0.8,2.7 c0,1.1-0.3,2-0.8,2.7s-1.2,1.4-2.1,1.8c-0.9,0.5-2,0.6-3.2,0.6h-8.3V15.5z"></path> <path class="st0" d="M94.4,0h15.8v3H94.4V0z M100.6,1.7h3.5v13.8h-3.5V1.7z"></path> <path class="st0" d="M116.5,15.5l2.6-4.5l0,0l6.2-10.8h3.9l-8.9,15.5L116.5,15.5L116.5,15.5z M119.2,13.2L111.5,0h3.8l6.2,10.8 L119.2,13.2z"></path> <path class="st0" d="M140.2,0c1.2,0,2.3,0.2,3.2,0.6c0.9,0.5,1.5,1.1,2,1.8c0.5,0.8,0.8,1.7,0.8,2.7c0,1.1-0.3,2-0.8,2.7 c-0.5,0.8-1.2,1.4-2,1.8c-0.9,0.5-2,0.6-3.2,0.6h-6.8V7.4h6.7c0.8,0,1.5-0.2,2-0.6c0.5-0.5,0.8-0.9,0.8-1.7s-0.3-1.2-0.8-1.7 c-0.5-0.5-1.1-0.6-2-0.6h-6.4l1.5-1.7v14.2h-3.5V0H140.2z"></path> <path class="st0" d="M157.3,0l7.3,15.5h-3.8l-6.4-13.9h1.2l-6.4,13.9h-3.8L152.7,0H157.3z M149.7,12.1V9.2h10.6v2.9H149.7z"></path> </g> <path class="st0" d="M25,39.7V24.2h3.5v12.6l-1.1-0.8L37,24.2h3.8L28.2,39.7C28.2,39.7,25,39.7,25,39.7z M32.4,32.1l2.6-2.3 l6.1,9.8h-3.9L32.4,32.1z"></path> <path class="st0" d="M51.7,24.2c1.2,0,2.3,0.2,3.2,0.6c0.9,0.5,1.5,1.1,2,1.8c0.5,0.8,0.8,1.7,0.8,2.7c0,1.1-0.3,2-0.8,2.7 c-0.5,0.8-1.2,1.4-2,1.8c-0.9,0.5-2,0.6-3.2,0.6h-6.8v-2.9h6.7c0.8,0,1.5-0.2,2-0.6c0.5-0.5,0.8-0.9,0.8-1.7s-0.3-1.2-0.8-1.7 c-0.5-0.5-1.1-0.6-2-0.6h-6.4l1.5-1.7v14.2h-3.5V24.2H51.7z"></path> <path class="st0" d="M64.5,32l-1.1,6.5L62,36.8h11.8v2.9H60l1.2-7.7L60,24.2h13.8v2.9H62l1.5-1.7L64.5,32z M73.2,30.6v2.7H62.1 v-2.7H73.2z"></path> <path class="st0" d="M93,24.2v15.5h-3.5V25.8l1.5,1.5h-12l1.5-1.5v13.9h-3.5V24.2H93z"></path> <path class="st0" d="M97,39.7V24.2h3.5v12.6l-1.1-0.8l9.5-11.8h3.8l-12.6,15.5H97z M104.4,32.1l2.6-2.3l6.1,9.8h-3.9L104.4,32.1z"></path> <path class="st0" d="M122.6,40c-1.8,0-3.3-0.3-4.7-1.1c-1.4-0.6-2.4-1.7-3.2-2.9s-1.1-2.6-1.1-4.2s0.3-3,1.1-4.2s1.8-2.1,3.2-2.9 c1.4-0.6,2.9-1.1,4.7-1.1s3.3,0.3,4.7,1.1c1.4,0.6,2.4,1.7,3.2,2.9c0.8,1.2,1.1,2.6,1.1,4.2c0,1.7-0.3,3-1.1,4.2 c-0.8,1.2-1.8,2.1-3.2,2.9C125.9,39.7,124.4,40,122.6,40z M122.6,36.8c1.1,0,2.1-0.2,2.9-0.6s1.5-0.9,1.8-1.7 c0.5-0.8,0.6-1.7,0.6-2.6c0-1.1-0.2-1.8-0.6-2.6c-0.5-0.8-1.1-1.4-1.8-1.7c-0.8-0.5-1.8-0.6-2.9-0.6s-2.1,0.2-2.9,0.6 c-0.8,0.5-1.5,0.9-2,1.7s-0.6,1.7-0.6,2.6c0,1.1,0.2,1.8,0.6,2.6c0.5,0.8,1.1,1.4,2,1.7C120.5,36.7,121.5,36.8,122.6,36.8z"></path> <path class="st0" d="M146.1,24.2v3h-9.4l1.5-1.5v13.9h-3.5V24.2H146.1z"></path> <path class="st0" d="M156.4,40c-1.8,0-3.3-0.3-4.7-1.1c-1.4-0.6-2.4-1.7-3.2-2.9c-0.8-1.2-1.1-2.6-1.1-4.2s0.3-3,1.1-4.2 c0.8-1.2,1.8-2.1,3.2-2.9c1.4-0.6,2.9-1.1,4.7-1.1c1.8,0,3.3,0.3,4.7,1.1c1.4,0.6,2.4,1.7,3.2,2.9c0.8,1.2,1.1,2.6,1.1,4.2 c0,1.7-0.3,3-1.1,4.2c-0.8,1.2-1.8,2.1-3.2,2.9C159.7,39.7,158,40,156.4,40z M156.4,36.8c1.1,0,2.1-0.2,2.9-0.6 c0.8-0.5,1.5-0.9,1.8-1.7c0.5-0.8,0.6-1.7,0.6-2.6c0-1.1-0.2-1.8-0.6-2.6s-1.1-1.4-1.8-1.7c-0.8-0.5-1.8-0.6-2.9-0.6 c-1.1,0-2.1,0.2-2.9,0.6c-0.8,0.5-1.5,0.9-2,1.7c-0.5,0.8-0.6,1.7-0.6,2.6c0,1.1,0.2,1.8,0.6,2.6c0.5,0.8,1.1,1.4,2,1.7 C154.2,36.7,155.2,36.8,156.4,36.8z"></path> </g> </svg> 